<svg t="1609316703881"  viewBox="0 0 1024 1024" version="1.1" xmlns="http://www.w3.org/2000/svg" p-id="12616" width="18" height="18"><path d="M554.666667 955.733333h-85.333334a17.066667 17.066667 0 0 1-17.066666-17.066666v-18.961067c-88.302933-12.117333-166.382933-51.5584-232.226134-117.4528C154.7264 736.938667 115.8144 659.456 104.226133 571.733333H85.333333a17.066667 17.066667 0 0 1-17.066666-17.066666v-85.333334a17.066667 17.066667 0 0 1 17.066666-17.066666h18.875734c11.5712-88.251733 50.466133-166.314667 115.780266-232.174934 65.962667-65.416533 144.008533-104.311467 232.277334-115.882666V85.333333a17.066667 17.066667 0 0 1 17.066666-17.066666h85.333334a17.066667 17.066667 0 0 1 17.066666 17.066666v18.8928c87.722667 11.588267 165.205333 50.500267 230.519467 115.8144 65.877333 65.8944 105.352533 143.957333 117.4528 232.226134H938.666667a17.066667 17.066667 0 0 1 17.066666 17.066666v85.333334a17.066667 17.066667 0 0 1-17.066666 17.066666h-18.978134c-12.117333 87.773867-51.592533 165.2736-117.486933 230.570667-65.2288 65.792-142.728533 105.2672-230.468267 117.384533V938.666667a17.066667 17.066667 0 0 1-17.066666 17.066666z m-68.266667-34.133333h51.2v-51.2h-51.2v51.2zM138.683733 571.733333c11.332267 78.301867 46.7456 147.643733 105.489067 206.3872 59.272533 59.306667 129.211733 95.266133 208.093867 107.093334V853.333333a17.066667 17.066667 0 0 1 17.066666-17.066666h85.333334a17.066667 17.066667 0 0 1 17.066666 17.066666v31.8464c78.267733-11.8272 147.592533-47.786667 206.336-107.025066 59.3408-58.794667 95.2832-128.1536 107.127467-206.4384H853.333333a17.066667 17.066667 0 0 1-17.066666-17.066667v-85.333333a17.066667 17.066667 0 0 1 17.066666-17.066667h31.880534c-11.8272-78.865067-47.803733-148.7872-107.093334-208.093867-58.743467-58.7264-128.085333-94.139733-206.3872-105.472V170.666667a17.066667 17.066667 0 0 1-17.066666 17.066666h-85.333334a17.066667 17.066667 0 0 1-17.066666-17.066666V138.666667c-78.8992 11.3152-148.8384 46.762667-208.145067 105.557333-58.692267 59.204267-94.1568 129.143467-105.454933 208.042667H170.666667a17.066667 17.066667 0 0 1 17.066666 17.066666v85.333334a17.066667 17.066667 0 0 1-17.066666 17.066666H138.683733zM904.533333 537.6h17.066667v-51.2h-51.2v51.2h34.133333z m-785.066666 0h34.133333v-51.2H102.4v51.2h17.066667zM486.4 153.6h51.2V102.4h-51.2v51.2z" p-id="12617"></path></svg>