<svg t="1609317268767"  viewBox="0 0 1024 1024" version="1.1" xmlns="http://www.w3.org/2000/svg" p-id="18305" width="15" height="15"><path d="M273.9 168.3H739v37.1H273.9zM273.9 819.6H739v37.1H273.9zM165.812 740.898v-465.1h37.1v465.1zM821.11 740.896v-465.1h37.1v465.1z" fill="#515151" p-id="18306"></path><path d="M184.7 66.2c-66.8 0-121 54.2-121 121s54.2 121 121 121 121-54.2 121-121-54.1-121-121-121z m-0.1 203.5c-45.7 0-82.7-37-82.7-82.7s37-82.7 82.7-82.7 82.7 37 82.7 82.7c0.1 45.7-37 82.7-82.7 82.7zM184.7 717.5c-66.8 0-121 54.2-121 121s54.2 121 121 121 121-54.2 121-121-54.1-121-121-121z m-0.1 203.6c-45.7 0-82.7-37-82.7-82.7s37-82.7 82.7-82.7 82.7 37 82.7 82.7c0.1 45.6-37 82.7-82.7 82.7zM840 717.5c-66.8 0-121 54.2-121 121s54.2 121 121 121 121-54.2 121-121-54.1-121-121-121z m-0.1 203.6c-45.7 0-82.7-37-82.7-82.7s37-82.7 82.7-82.7 82.7 37 82.7 82.7c0.1 45.6-37 82.7-82.7 82.7zM840 66.2c-66.8 0-121 54.2-121 121s54.2 121 121 121 121-54.2 121-121-54.1-121-121-121z m-0.1 203.5c-45.7 0-82.7-37-82.7-82.7s37-82.7 82.7-82.7 82.7 37 82.7 82.7c0.1 45.7-37 82.7-82.7 82.7z" fill="#515151" p-id="18307"></path></svg>